# xmcd CD database file
#
# Track frame offsets:
#	150
#	24010
#	40924
#	60438
#	76918
#	92597
#	114951
#	130256
#	153463
#	175351
#	191500
#	215303
#
# Disc length: 3209 seconds
#
# Revision: 0
# Processed by: cddbd v1.5.2PL0 Copyright (c) Steve Scherf et al.
# Submitted via: CDex 1.70beta2
#
DISCID=8c0c870c
DTITLE=Tony Gallo - Something to Say
DYEAR=2003
DGENRE=Jazz
TTITLE0=All Blues
TTITLE1=Do Nothin' Til You Hear From Me
TTITLE2=Night and Day
TTITLE3=The Trouble With Me
TTITLE4=Ain't Misbehavin'
TTITLE5=Song For My Father
TTITLE6=Good Rockin' at Midnight
TTITLE7=Autumn Leaves
TTITLE8=Mood Indigo
TTITLE9=St. Thomas
TTITLE10=My One and Only Love
TTITLE11=Black Cow
EXTD=YEAR: 2003
EXTT0=
EXTT1=
EXTT2=
EXTT3=
EXTT4=
EXTT5=
EXTT6=
EXTT7=
EXTT8=
EXTT9=
EXTT10=
EXTT11=
PLAYORDER=
